<svg width="0" height="0" class="hidden">
  <symbol fill="none" xmlns="http://www.w3.org/2000/svg" viewBox="0 0 18 19" id="Values__title">
    <path d="M15.68 10.084C15.319 8.47595 13.58 7.62895 11.787 8.03395C11.411 8.11795 11.049 7.88995 11.009 7.54395C10.819 5.88895 9.33899 4.70795 7.536 4.95395C5.469 5.23595 3.918 7.10395 4.13 8.95495L4.864 15.325C4.912 15.737 5.313 15.989 5.758 15.889L12.663 14.331C14.671 13.878 16.091 11.928 15.68 10.084Z" fill="#BE41C7"></path>
    <path d="M14.26 2.36295C13.962 1.81695 13.237 1.63195 12.62 1.89495C12.488 1.95195 12.337 1.89695 12.285 1.77295C12.1609 1.48641 11.9339 1.25679 11.6488 1.12942C11.3637 1.00205 11.0412 0.986182 10.745 1.08495C10.015 1.32295 9.63798 2.08995 9.90598 2.73295L10.831 4.94595C10.891 5.08795 11.063 5.15095 11.217 5.08595L13.59 4.07195C14.28 3.77695 14.6 2.99095 14.26 2.36295Z" fill="#BE41C7"></path>
  </symbol>
  <symbol fill="none" xmlns="http://www.w3.org/2000/svg" viewBox="0 0 4 5" id="Footer__submit">
    <path d="M.161 1.308.129.996A.288.288 0 0 1 .345.698L3.11.018c.133-.033.253.047.265.179l.284 2.737a.288.288 0 0 1-.217.298l-.315.077c-.135.034-.256-.05-.267-.185l-.13-1.666L.894 3.984c-.085.117-.237.154-.342.084l-.25-.17c-.105-.07-.12-.22-.036-.338l1.835-2.525-1.67.451c-.135.037-.258-.043-.271-.178Z" fill="#F4F9FE"></path>
  </symbol>
  <symbol fill="none" xmlns="http://www.w3.org/2000/svg" viewBox="0 0 13 10" id="Footer__title">
    <g clip-path="url(#clip0_152_2)">
      <path d="M11.606 4.15299L1.897 0.279991C0.773999 -0.162009 0.0909994 1.13299 0.964999 1.95799L2.19 3.11499C2.66194 3.56252 2.93919 4.17754 2.96201 4.82753C2.98483 5.47752 2.7514 6.11047 2.312 6.58999L1.578 7.38599C0.882999 8.14099 1.868 9.51099 2.902 9.16399L11.828 6.12699C12.623 5.81899 12.478 4.53499 11.605 4.15299H11.606Z" fill="#BE41C7"></path>
    </g>
    <defs>
      <clipPath id="clip0_152_2">
        <rect width="13" height="10" fill="white"></rect>
      </clipPath>
    </defs>
  </symbol>
  <symbol fill="none" xmlns="http://www.w3.org/2000/svg" viewBox="0 0 18 17" id="Header__burger">
    <path d="M0 .5h18v2H0v-2Zm0 7h18v2H0v-2Zm0 7h18v2H0v-2Z" fill="#fff"></path>
  </symbol>
  <symbol fill="#fff" xmlns="http://www.w3.org/2000/svg" viewBox="0 0 50 50" id="Header__burger-close">
    <path d="M40.783 7.271a2 2 0 0 0-1.396.616L25.05 22.223 10.715 7.887a2 2 0 0 0-1.436-.608 2 2 0 0 0-1.392 3.436L22.223 25.05 7.887 39.387a2 2 0 1 0 2.828 2.828L25.05 27.879l14.336 14.336a2 2 0 1 0 2.828-2.828L27.879 25.05l14.336-14.336a2 2 0 0 0-1.432-3.444z"></path>
  </symbol>
  <symbol fill="none" xmlns="http://www.w3.org/2000/svg" viewBox="0 0 64 18" id="Header__logo">
    <path d="M.718.98C.718.858.775.779.89.74c.122-.045.247-.068.377-.068h.889c.076-.007.22-.015.433-.023l.684-.022C3.516.61 3.744.6 3.957.592c.22-.007.376-.015.467-.022a.469.469 0 0 0 .16.057c.09.015.155.03.193.045h.058a.446.446 0 0 0 .262-.08.464.464 0 0 1 .25-.08c.016-.015.061-.022.137-.022.061 0 .126.004.194.011.069.008.11.012.126.012.06-.016.156-.03.285-.046l.41-.069.388-.057a4.23 4.23 0 0 0 .24-.034c.007 0 .03-.007.068-.023L7.332.24l.136-.057.092-.046c.03-.015.09-.034.182-.057.091-.03.14-.045.148-.045h1.152c.099.038.156.098.17.182a.943.943 0 0 1 .011.365.7.7 0 0 0-.01.091c0 .015-.015.042-.046.08l-.102.103-.114.09C8.92.97 8.897.98 8.882.98c-.06.023-.16.046-.296.068-.137.023-.281.046-.433.069l-.422.045c-.13.016-.22.023-.274.023a.343.343 0 0 0-.057.012h-.422a3.853 3.853 0 0 0-.205-.012 2.259 2.259 0 0 0-.354.057.418.418 0 0 0-.285.194c0 .038-.007.103-.022.194-.016.091-.03.19-.046.296a4.067 4.067 0 0 1-.057.297 1.4 1.4 0 0 0-.023.182c0 .015-.011.061-.034.137a.902.902 0 0 0-.034.114.541.541 0 0 0-.034.205c0 .175.015.342.045.502.038.16.057.338.057.536 0 .281-.011.555-.034.82a9.082 9.082 0 0 0-.034.8.48.48 0 0 0 .011.079c.008.03.015.068.023.114l.023.125a.48.48 0 0 1 .011.08v.137c.008.068.012.148.012.24v.296c0 .106-.004.209-.012.308V7.32a646.502 646.502 0 0 0 .034.16c.008.03.016.064.023.102l.012.045c0 .03.003.088.01.171.009.084.016.175.024.274a3.364 3.364 0 0 1 .045.468l.023.045c.015.03.023.053.023.069 0 .47-.023.942-.068 1.414-.046.47-.088.946-.126 1.425 0 .023.004.064.012.125.007.053.015.114.022.183l.023.182c.008.06.012.103.012.125.007.061.015.164.022.308a9.612 9.612 0 0 1 .046.9c.008.138.011.233.011.286.016.023.023.084.023.183v.319c0 .114-.004.232-.011.353v.354c0 .106-.004.201-.012.285v.148c.008.038.016.091.023.16l.046.205a.837.837 0 0 0 .068.194.314.314 0 0 0 .148.114c.03 0 .092.004.183.011l.285.023c.106 0 .205.004.296.011.092.008.152.012.183.012.03 0 .08.007.148.023.068.015.11.026.125.034h.434a19.948 19.948 0 0 1 1.39 0h.445a1.698 1.698 0 0 1 .25.046c.062.007.12.018.172.034.061.007.1.015.114.022.327.016.665.046 1.015.092.357.045.707.068 1.05.068.098 0 .174-.004.227-.011.061-.015.145-.038.251-.069.175-.091.346-.182.513-.273.167-.1.338-.194.513-.285a.97.97 0 0 1 .24-.206c.038-.022.076-.05.114-.08.045-.03.098-.072.16-.125.22-.19.414-.403.58-.638.176-.236.343-.476.503-.719.16-.25.319-.498.478-.74a4 4 0 0 1 .548-.685c0-.015.019-.023.057-.023h.011l.046.023.023.068.022.046c.008.015.012.03.012.046a7.642 7.642 0 0 1 .08.456 28.967 28.967 0 0 0 .08.524v.159c0 .039-.008.126-.023.263-.016.13-.035.274-.057.433-.016.16-.03.312-.046.456a6.318 6.318 0 0 1-.034.274c0 .023-.004.084-.012.183l-.023.33c0 .114-.003.224-.01.33-.009.1-.012.16-.012.183-.038.243-.11.437-.217.582-.106.137-.27.205-.49.205a1.952 1.952 0 0 0-.365-.023H14.56c-.174 0-.292.008-.353.023h-.091a2.55 2.55 0 0 1-.137.023 1.052 1.052 0 0 1-.148.011.353.353 0 0 0-.08.023h-2.349a5.51 5.51 0 0 1-.41.023c-.213.015-.441.026-.685.034a24.954 24.954 0 0 1-1.094.046h-.091a6.01 6.01 0 0 0-.354-.035 30.657 30.657 0 0 1-.604-.057c-.213-.015-.41-.03-.593-.045A5.874 5.874 0 0 0 7.229 17h-.81c-.015 0-.06-.008-.136-.023a.695.695 0 0 0-.149-.034l-.057.011c-.03.008-.064.016-.102.023a.58.58 0 0 0-.114.012.343.343 0 0 1-.057.011h-.536c-.593.015-1.19.046-1.79.091-.593.046-1.194.069-1.802.069H1.13a.188.188 0 0 1-.057-.012 1.273 1.273 0 0 1-.126-.091.26.26 0 0 1-.045-.103 1.052 1.052 0 0 1-.012-.148.48.48 0 0 1 .046-.216.237.237 0 0 1 .148-.126l.091-.045a.68.68 0 0 0 .092-.069c.152-.068.33-.103.536-.103.212 0 .425-.003.638-.01.213-.016.41-.05.593-.104a.742.742 0 0 0 .422-.353c.007-.03.015-.087.023-.171l.022-.274.023-.262c.008-.084.012-.137.012-.16a.55.55 0 0 0-.046-.148.988.988 0 0 1-.034-.148v-.593l-.034-.262a.101.101 0 0 1-.012-.046.101.101 0 0 1-.011-.045c0-.122.007-.225.023-.308.022-.084.034-.179.034-.285v-.183a.78.78 0 0 0-.023-.148 1.725 1.725 0 0 1-.011-.125c0-.023.003-.08.011-.171.015-.092.023-.152.023-.183v-.775c0-.038.015-.107.045-.206a.5.5 0 0 0 .035-.205 1.618 1.618 0 0 1-.046-.319l-.034-.844v-.786c.015-.388.026-.666.034-.833.015-.167.03-.266.046-.296v-.057c0-.29-.016-.578-.046-.867a11.009 11.009 0 0 1-.034-.866c0-.054-.004-.107-.012-.16a1.128 1.128 0 0 1-.011-.16c0-.068.015-.163.046-.285.038-.129.057-.277.057-.444 0-.19-.004-.384-.012-.582a16.334 16.334 0 0 1-.011-.604c0-.175.004-.346.011-.513.008-.175.012-.35.012-.525a1.052 1.052 0 0 1-.08-.296 4.422 4.422 0 0 0-.034-.33 1.756 1.756 0 0 0-.046-.309c-.015-.099-.053-.17-.114-.216-.106-.084-.262-.137-.467-.16-.198-.03-.419-.057-.662-.08a16.43 16.43 0 0 0-.627-.034 1.552 1.552 0 0 1-.513-.114C.81 1.333.718 1.192.718.98Zm17.366 15.723c0-.129.053-.227.16-.296a.594.594 0 0 1 .467-.102H19.156a.472.472 0 0 0 .148-.035c.015-.015.045-.026.091-.034a.513.513 0 0 1 .103-.023h.08l.296.034c.091 0 .144-.007.16-.022l.102-.114a.454.454 0 0 0 .069-.114.481.481 0 0 1 .09-.126v-.524c0-.22-.01-.43-.033-.627a5.784 5.784 0 0 1-.035-.639c0-.175.008-.304.023-.388.015-.09.023-.205.023-.342V13.123c0-.068-.004-.163-.011-.285a373 373 0 0 0-.091-1.22c.022-.106.037-.197.045-.274.008-.083.011-.178.011-.284v-.297a.569.569 0 0 0-.011-.068 3.976 3.976 0 0 1-.023-.126.48.48 0 0 0-.011-.114.569.569 0 0 1-.012-.068v-.73a18.087 18.087 0 0 0-.046-.924 89.156 89.156 0 0 0-.022-.57 10.81 10.81 0 0 1-.011-.376.518.518 0 0 0-.137-.25 1.758 1.758 0 0 0-.217-.206c-.076-.053-.133-.08-.17-.08a.215.215 0 0 0-.07.012.297.297 0 0 1-.09.011h-.103a.39.39 0 0 0-.126-.057.508.508 0 0 0-.125-.046 1.595 1.595 0 0 0-.183-.034 2.934 2.934 0 0 0-.296-.057l-.308-.045a1.553 1.553 0 0 1-.17-.035.415.415 0 0 1-.183-.09.304.304 0 0 1-.069-.206c0-.06.012-.137.034-.228.023-.091.065-.148.126-.171a.69.69 0 0 1 .274-.08c.129-.023.27-.038.422-.046.152-.015.311-.022.478-.022h.48c.014-.016.041-.023.08-.023h.136c.106 0 .22.004.342.011.122.008.198.012.228.012h.171c.091-.008.19-.012.297-.012h.319a3.53 3.53 0 0 1 .182-.011l.137-.012c.091-.015.198-.026.32-.034.12-.015.25-.026.387-.034.137-.015.258-.023.365-.023h1.47c.07.03.153.057.252.08.106.023.205.05.296.08.099.03.179.072.24.125a.23.23 0 0 1 .102.205c0 .107-.053.202-.16.285a1.59 1.59 0 0 1-.376.194 4.56 4.56 0 0 1-.764.171h-.787c-.015 0-.056.027-.125.08a.584.584 0 0 1-.148.08 7.028 7.028 0 0 0-.262.137c-.061.038-.092.087-.092.148v.217c0 .076.004.16.012.25a.342.342 0 0 0 .102.217v.513c0 .456-.03.912-.09 1.368-.062.449-.092.901-.092 1.357a1.908 1.908 0 0 0-.023.274c0 .16-.004.346-.011.559v2.155c.007.213.011.414.011.604.008.182.015.312.023.388-.023.152.004.273.08.365a.992.992 0 0 0 .308.205c.129.053.27.095.421.125.16.03.305.065.434.103.137.03.25.072.342.125a.25.25 0 0 1 .137.228c0 .1-.057.183-.171.251-.107.061-.194.107-.263.137-.022.015-.064.023-.125.023-.06.007-.125.011-.194.011-.06.008-.118.012-.17.012h-.274c-.069 0-.137-.004-.206-.012a1.21 1.21 0 0 1-.17-.011c-.046 0-.073-.008-.08-.023a.345.345 0 0 1-.058-.011 2.227 2.227 0 0 0-.102-.023.58.58 0 0 1-.114-.012.569.569 0 0 0-.069-.011h-.102a.721.721 0 0 0-.342.091.638.638 0 0 1-.32.091 4.135 4.135 0 0 1-.456-.046c-.091-.014-.178-.03-.262-.045-.084-.007-.133-.019-.148-.034h-.297c-.16 0-.311.019-.456.057a1.436 1.436 0 0 1-.456.068c-.068 0-.16-.003-.273-.011a1.583 1.583 0 0 1-.331-.057.9.9 0 0 1-.285-.137.35.35 0 0 1-.114-.274Zm7.81-5.62c.015 0 .03-.035.046-.103a.41.41 0 0 1 .057-.137v-.091l.023-.16c.007-.06.015-.114.023-.16a.976.976 0 0 0 .01-.102l.035-.091c.015-.046.034-.092.057-.137a1.67 1.67 0 0 0 .057-.126.441.441 0 0 1 .057-.08.179.179 0 0 1 .034-.045c.015-.03.03-.046.046-.046.046-.129.076-.266.091-.41a.727.727 0 0 1 .16-.365.334.334 0 0 1 .057-.091c.038-.046.072-.092.102-.137l.103-.126c.038-.045.068-.08.091-.102.008 0 .023-.012.046-.034a.398.398 0 0 0 .08-.08l.08-.08.056-.057a.373.373 0 0 1 .058-.16 3.53 3.53 0 0 1 .752-.752c.304-.228.63-.422.98-.582a5.873 5.873 0 0 1 1.095-.387 4.463 4.463 0 0 1 1.06-.137h.24c.099 0 .156.007.171.023l.24.057c.053.015.14.03.262.045.129.008.262.02.399.034l.376.023c.122.008.202.015.24.023.174.099.342.167.501.205.16.03.327.046.502.046a.682.682 0 0 0 .285-.057 1.93 1.93 0 0 0 .25-.126 2.04 2.04 0 0 1 .252-.136.627.627 0 0 1 .262-.057c.16 0 .293.068.399.205a.667.667 0 0 1 .171.433c0 .084-.027.16-.08.228-.053.061-.083.16-.091.297v1.128c0 .016-.015.073-.046.171a.959.959 0 0 0-.034.183 1.4 1.4 0 0 0-.023.25.68.68 0 0 1-.034.217.253.253 0 0 1-.102.149c-.054.038-.141.057-.263.057h-.114a.55.55 0 0 1-.045-.171 2.937 2.937 0 0 1-.012-.171 3.189 3.189 0 0 0-.296-.685 4.883 4.883 0 0 0-.41-.627c0-.015-.016-.03-.046-.045a.11.11 0 0 0-.057-.023c-.175-.114-.33-.22-.468-.32a4.653 4.653 0 0 0-.399-.273 2.528 2.528 0 0 0-.422-.24 2.903 2.903 0 0 0-.524-.205h-.08c-.053 0-.148.008-.285.023-.13.015-.27.034-.422.057-.144.015-.285.03-.422.046-.129.007-.22.011-.273.011a.384.384 0 0 1-.092.057c-.045.023-.072.042-.08.057-.015 0-.045.02-.09.057l-.137.137a2.595 2.595 0 0 1-.137.148.365.365 0 0 1-.08.08.26.26 0 0 1-.08.068c-.038.03-.08.061-.125.092l-.137.068-.091.046c-.008 0-.02.022-.035.068a.373.373 0 0 0-.023.091c-.007 0-.026.016-.056.046a1.13 1.13 0 0 1-.092.08l-.09.091-.058.057a1.879 1.879 0 0 1-.08.125.445.445 0 0 0-.057.126c0 .023-.019.057-.057.102-.03.038-.05.057-.057.057 0 .023-.011.042-.034.057-.015.016-.023.03-.023.046-.35.41-.585.878-.707 1.402a6.751 6.751 0 0 0-.182 1.551c0 .023.004.061.011.114l.023.171c.015.053.027.107.034.16a.373.373 0 0 1 .023.091c.008.099.015.217.023.354l.046.41c.022.144.049.285.08.422.03.137.068.255.113.353 0 .016.012.042.035.08.03.03.056.069.08.114l.08.103c.03.03.045.05.045.057.015.015.03.042.045.08.016.038.03.083.046.136a.483.483 0 0 1 .046.137c.015.038.026.065.034.08a.2.2 0 0 1 .023.057c0 .015-.004.03-.012.046v.045a.087.087 0 0 0-.011.035c.007.015.019.03.034.045a.123.123 0 0 0 .091.034l.593.49c.175.145.354.27.536.377.182.106.384.205.604.296.22.084.483.16.787.229l.24.08a.773.773 0 0 0 .239-.046c.099-.03.194-.069.285-.114a1.41 1.41 0 0 0 .25-.16.668.668 0 0 0 .172-.194c.015 0 .034-.023.057-.068a.37.37 0 0 1 .057-.103l.057-.057v-.342c0-.433.03-.855.091-1.266.061-.41.091-.82.091-1.231v-.194a.876.876 0 0 0-.022-.228c0-.015-.023-.027-.069-.034a.263.263 0 0 0-.091-.023.64.64 0 0 0-.148-.023 3.035 3.035 0 0 0-.274-.011l-.274-.023a1.004 1.004 0 0 1-.17-.023 1.563 1.563 0 0 1-.4-.16.423.423 0 0 1-.205-.387c0-.06.015-.11.046-.148a.5.5 0 0 1 .148-.114h.376c.198 0 .388.019.57.057.19.03.38.045.57.045.282 0 .56-.015.833-.045a6.13 6.13 0 0 1 .843-.057c.282 0 .555.026.822.08.273.045.554.083.843.114a.617.617 0 0 1 .171.136c.053.046.08.122.08.229v.034c0 .015-.008.023-.023.023a.553.553 0 0 1-.33.193c-.13.023-.259.038-.388.046-.13 0-.259.015-.388.045a.573.573 0 0 0-.33.229 5.8 5.8 0 0 1-.046.228c-.015.106-.034.22-.057.342-.023.121-.042.24-.057.353a1.878 1.878 0 0 0-.023.217c-.007.03-.019.106-.034.228l-.023.387a56.668 56.668 0 0 1-.034.593.2.2 0 0 1-.023.057.626.626 0 0 1-.034.08.449.449 0 0 1-.034.091.187.187 0 0 0-.012.046.496.496 0 0 1 .103.148c.046.084.076.145.091.183 0 .03.012.057.034.08l.046.045a.78.78 0 0 0 .16-.057l.114-.046a.317.317 0 0 1 .068-.022h.114a.51.51 0 0 1 .308.09c.084.062.125.15.125.263v.08c0 .053-.007.087-.023.103-.197.136-.417.277-.66.422-.244.136-.487.22-.73.25-.13.03-.248.05-.354.057-.106 0-.213.004-.32.012a1.774 1.774 0 0 0-.33.057 1.362 1.362 0 0 0-.365.148h-1.117c-.471 0-.931-.011-1.38-.034a6.59 6.59 0 0 1-1.345-.24h-.08a2.55 2.55 0 0 0-.137-.023l-.137-.022-.057-.012a2.045 2.045 0 0 1-.114-.068 3.339 3.339 0 0 0-.17-.114 1.667 1.667 0 0 0-.172-.114 1.965 1.965 0 0 1-.08-.069 11.22 11.22 0 0 1-.65-.444 6.35 6.35 0 0 1-.65-.547 5.407 5.407 0 0 1-.558-.628 2.94 2.94 0 0 1-.388-.707 6.125 6.125 0 0 1-.114-.319 13.183 13.183 0 0 1-.217-.912 2.68 2.68 0 0 1-.034-.388v-1.277Zm12.6 5.563c0-.022.003-.056.011-.102a.717.717 0 0 0 .011-.114.897.897 0 0 1 .285-.125c.114-.03.232-.054.354-.069.13-.015.25-.027.365-.034.114-.008.213-.02.296-.034.008-.008.015-.027.023-.057.008-.038.015-.073.023-.103.007-.038.015-.072.023-.103a.569.569 0 0 0 .011-.068c.015-.015.023-.042.023-.08a.582.582 0 0 0-.011-.114.898.898 0 0 1-.012-.08l.057-.09c.03-.039.046-.07.046-.092v-.16a3.33 3.33 0 0 0-.012-.296 1.292 1.292 0 0 0-.091-.33c.008-.07.011-.168.011-.297.008-.13.016-.278.023-.445.008-.167.012-.346.012-.536.007-.197.011-.395.011-.593 0-.403-.008-.779-.023-1.129-.007-.35-.019-.6-.034-.752 0-.069-.004-.175-.011-.32a11.9 11.9 0 0 0-.012-.49c0-.182-.004-.372-.011-.57l-.023-.57c0-.182-.004-.342-.011-.479a2.84 2.84 0 0 0-.012-.308 1.927 1.927 0 0 0-.046-.353 1.117 1.117 0 0 0-.034-.183.417.417 0 0 0-.022-.102.348.348 0 0 0-.251-.24 2.061 2.061 0 0 0-.388-.08 2.176 2.176 0 0 1-.353-.09c-.1-.046-.149-.137-.149-.274 0-.054.004-.103.012-.149.007-.053.042-.09.102-.114a.447.447 0 0 1 .103-.045l.16-.046a.875.875 0 0 1 .16-.045.84.84 0 0 0 .09-.035h1.232c.008 0 .03.008.068.023a.9.9 0 0 1 .137.034l.137.023a.7.7 0 0 0 .091.012c.03-.008.095-.02.194-.035a10.324 10.324 0 0 1 .65-.125 2.73 2.73 0 0 0 .194-.034h.946c.053.007.114.023.183.045.076.016.148.038.216.069a.56.56 0 0 1 .171.114.207.207 0 0 1 .069.148c0 .106-.065.19-.194.25-.13.054-.281.1-.456.138l-.536.091a1.643 1.643 0 0 0-.4.091.381.381 0 0 0-.136.194.244.244 0 0 1-.114.16V8.699c0 .008.008.053.023.137a.411.411 0 0 0 .057.137v.16c-.008 0-.023.01-.046.034a.133.133 0 0 0-.034.023.506.506 0 0 0-.034.16c0 .075-.004.155-.012.239 0 .083-.003.167-.011.25 0 .076-.008.13-.023.16.038.084.065.19.08.32.023.129.05.25.08.364a.7.7 0 0 0 .011.091c.008.038.015.084.023.137a.9.9 0 0 1 .034.137c.015.038.023.06.023.069a.49.49 0 0 0 .011.09c.008.039.02.08.035.126.022.038.045.072.068.103.03.03.065.045.103.045h.045c.41-.06.855-.106 1.334-.136.48-.03.92-.046 1.323-.046.091 0 .171.019.24.057a.527.527 0 0 0 .239.057c.312 0 .6-.019.866-.057.266-.046.555-.065.867-.057l.16-.08c0-.015.003-.076.011-.182a1.883 1.883 0 0 0 0-.422v-.217c0-.076-.004-.144-.011-.205v-.114a18.087 18.087 0 0 0-.046-.912 89.156 89.156 0 0 0-.023-.57 10.61 10.61 0 0 1-.011-.331V7.73c-.023-.19-.08-.334-.171-.433a.765.765 0 0 0-.33-.228 1.327 1.327 0 0 0-.389-.103 19.672 19.672 0 0 1-.387-.068 1.143 1.143 0 0 1-.285-.091c-.076-.039-.114-.107-.114-.206 0-.114.045-.201.137-.262a.524.524 0 0 1 .296-.091h.182c.046.007.149.019.308.034.16.015.327.034.502.057s.338.046.49.068c.16.016.259.027.297.035h.057c.068-.016.16-.035.273-.057.114-.023.225-.042.331-.057a6.49 6.49 0 0 0 .297-.046.92.92 0 0 0 .16-.034.195.195 0 0 0 .09-.034c.046-.03.076-.046.092-.046h.353l.16.046a.65.65 0 0 0 .114.034h.068a.93.93 0 0 0 .16.023l.273.022c.1.008.187.02.263.035a.64.64 0 0 1 .148.022c.03 0 .068.012.114.035.045.022.068.041.068.057 0 .03.008.068.023.114.008.03.012.053.012.068v.08a.66.66 0 0 1-.046.217.102.102 0 0 1-.069.057c-.038 0-.102.007-.193.022a2.016 2.016 0 0 0-.285.046c-.1.015-.194.03-.285.046a1.399 1.399 0 0 1-.183.022.663.663 0 0 0-.376.194 2.852 2.852 0 0 0-.263.342 2.016 2.016 0 0 0-.022.205c-.008.092-.016.194-.023.308 0 .114-.004.225-.011.331v4.458c.007.084.01.171.01.262l.024.263c.007.083.015.14.022.17.016.008.027.024.035.046l.045.046.046.068v.092c0 .06-.008.11-.023.148-.007.038-.042.083-.103.137l-.056 1.277c0 .022.003.068.01.136.016.061.031.107.046.137.023.023.054.057.092.103l.137.137c.053.045.106.087.16.125.06.038.117.061.17.069.076.015.171.03.285.045.114.015.224.042.331.08a.68.68 0 0 1 .285.148.348.348 0 0 1 .125.285c0 .107-.057.187-.17.24a.736.736 0 0 1-.286.068h-.057a.976.976 0 0 1-.102-.011 4.011 4.011 0 0 0-.16-.023 1.196 1.196 0 0 0-.16-.034.375.375 0 0 0-.09-.023.892.892 0 0 0-.126.023c-.061.007-.126.019-.194.034a14.495 14.495 0 0 0-.296.034h-.115a4.2 4.2 0 0 1-.193-.011 28.562 28.562 0 0 0-.354-.023 5.911 5.911 0 0 0-.365-.034 1.66 1.66 0 0 1-.216-.023H45.63a.28.28 0 0 1-.102-.023c-.038-.023-.057-.042-.057-.057v-.273a.521.521 0 0 1 .376-.285c.175-.046.35-.073.525-.08.182-.016.345-.027.49-.035.144-.015.228-.072.25-.17v-.263c.008-.13.012-.258.012-.387v-.388c.008-.122.011-.205.011-.251 0-.084-.003-.194-.011-.33V14c0-.137-.004-.254-.011-.353v-.194c0-.015-.004-.057-.012-.126a2.18 2.18 0 0 0-.045-.444 1.286 1.286 0 0 0-.023-.16.893.893 0 0 0-.08-.273.353.353 0 0 0-.194-.183h-2.349a13.106 13.106 0 0 0-.718.046 105.248 105.248 0 0 0-.741.034h-.433a.925.925 0 0 0-.114.011 4.011 4.011 0 0 1-.16.023l-.16.023a.725.725 0 0 0-.102.023l-.046.091c-.023.038-.034.065-.034.08-.015.06-.034.144-.057.25a5.366 5.366 0 0 1-.057.309c-.015.098-.03.19-.046.273a2.21 2.21 0 0 0-.011.137c0 .053.004.137.011.25l.023.377.023.376c.015.122.026.22.034.297 0 .007.004.03.011.068a230.307 230.307 0 0 1 .046.217c.015.038.023.06.023.068v.514c0 .022.011.072.034.148.023.076.038.121.046.136.007 0 .034.012.08.035a.855.855 0 0 1 .16.09 1.274 1.274 0 0 1 .296.206c.06.038.155.057.285.057.129 0 .258.004.387.012.13.007.243.03.342.068.1.038.149.11.149.216 0 .069-.016.118-.046.149-.03.023-.088.053-.171.091-.22.03-.433.05-.639.057h-2.68a9.173 9.173 0 0 1-.478.011c-.167.008-.327.012-.479.012a7.475 7.475 0 0 1-.32.011.263.263 0 0 1-.09-.023.65.65 0 0 1-.114-.034 1.549 1.549 0 0 0-.103-.057c-.03-.023-.046-.042-.046-.057a.375.375 0 0 1-.011-.091.542.542 0 0 1-.011-.125Zm16.806.274a.34.34 0 0 1 .069-.228.537.537 0 0 1 .17-.148c.077-.038.187-.069.331-.091l.434-.091a2.22 2.22 0 0 0 .399-.137.37.37 0 0 0 .205-.251v-.707c.008-.19.011-.407.011-.65.008-.25.016-.517.023-.798.008-.281.012-.548.012-.798.007-.251.011-.468.011-.65.008-.19.011-.316.011-.377V8.062a.638.638 0 0 0-.273-.354.695.695 0 0 0-.434-.16H54.81a.604.604 0 0 0-.228.07 5.155 5.155 0 0 1-.205.09c-.29.175-.52.365-.696.57-.175.198-.35.415-.524.65a1.077 1.077 0 0 0-.069.08l-.08.137c-.022.046-.049.091-.08.137a1.422 1.422 0 0 0-.045.08 1.002 1.002 0 0 1-.08.148c-.038.06-.08.121-.125.182a.996.996 0 0 1-.148.16c-.046.045-.088.068-.126.068a.325.325 0 0 1-.194-.057.454.454 0 0 1-.114-.148 1.443 1.443 0 0 1-.057-.194 2.438 2.438 0 0 1 .034-.696c.03-.151.061-.311.092-.478.023-.099.045-.251.068-.456.03-.213.069-.422.114-.627.046-.213.11-.4.194-.56.084-.159.198-.239.342-.239.008 0 .023.004.046.012h.057a.215.215 0 0 0 .068.011c.023.015.069.042.137.08.068.03.14.065.217.103l.228.102c.068.03.11.046.125.046.008.008.03.015.069.023h.376l.057.023a.901.901 0 0 1 .137.034c.053.015.098.03.136.045a.878.878 0 0 0 .08.012c.38 0 .757-.034 1.129-.103.38-.076.76-.114 1.14-.114.67 0 1.33.038 1.984.114.662.069 1.323.103 1.984.103h.582a.744.744 0 0 1 .114-.034c.06-.023.125-.042.194-.057l.205-.069a1.24 1.24 0 0 0 .148-.057.718.718 0 0 0 .171-.08c.046-.038.087-.076.125-.114a.6.6 0 0 1 .149-.091.41.41 0 0 1 .205-.046c.144 0 .258.069.342.206.091.129.16.285.205.467.053.183.091.369.114.559.03.182.065.323.103.422.03.16.076.323.137.49.068.167.102.342.102.525a.852.852 0 0 1-.023.182.571.571 0 0 1-.056.194.429.429 0 0 1-.126.137.325.325 0 0 1-.194.057c-.076 0-.167-.057-.273-.171a27.82 27.82 0 0 1-.343-.4 22.61 22.61 0 0 0-.342-.444c-.106-.145-.205-.24-.296-.285a2.851 2.851 0 0 1-.103-.057 1.483 1.483 0 0 0-.16-.091 1.563 1.563 0 0 0-.159-.08 1.115 1.115 0 0 0-.091-.057 4.992 4.992 0 0 1-.422-.274 1.71 1.71 0 0 0-.433-.24H60.432a1.383 1.383 0 0 0-.172-.01h-.319c-.16 0-.323.01-.49.033a.517.517 0 0 0-.377.217c0 .06.004.156.012.285a7.219 7.219 0 0 1 0 .844 5.4 5.4 0 0 0-.012.274.262.262 0 0 1-.022.08.81.81 0 0 1-.035.102l-.045.114c-.008.03-.015.05-.023.057v3.478c-.068.136-.11.243-.125.319a1.641 1.641 0 0 0-.023.308v.17c0 .016.004.05.011.103a.835.835 0 0 1 .034.16 1.196 1.196 0 0 1 .046.25v1.29c.023.159.06.3.114.421.053.122.167.19.342.205.03.008.091.016.183.023a56.595 56.595 0 0 0 .843.057.38.38 0 0 1 .126.16.36.36 0 0 1 .057.194c0 .06-.016.106-.046.137a.79.79 0 0 1-.137.125 20.949 20.949 0 0 0-1.186.011c-.41.008-.828.02-1.254.035l-1.243.022c-.41.016-.794.023-1.151.023-.061 0-.118-.004-.171-.011-.046-.008-.069-.042-.069-.103Z" fill="#fff"></path>
  </symbol>
  <symbol fill="none" xmlns="http://www.w3.org/2000/svg" viewBox="0 0 9 9" id="Hero__online-icon">
    <circle cx="4.492" cy="4.17" r="4.17" fill="#fff"></circle>
  </symbol>
  <symbol fill="none" xmlns="http://www.w3.org/2000/svg" viewBox="0 0 24 21" id="Values__simple">
    <g clip-path="url(#clip0_151_8)">
      <path fill-rule="evenodd" clip-rule="evenodd" d="M4.099 1.93301C3.27744 1.93301 2.4895 2.25924 1.90838 2.83998C1.32727 3.42072 1.00053 4.20845 1 5.03001V17.425C1.00027 18.2467 1.32688 19.0347 1.90803 19.6157C2.48918 20.1966 3.27727 20.523 4.099 20.523H16.493C17.3147 20.523 18.1028 20.1966 18.684 19.6157C19.2651 19.0347 19.5917 18.2467 19.592 17.425V5.03001C19.592 4.53001 19.473 4.05801 19.263 3.64001C18.9181 2.93448 18.3119 2.39107 17.573 2.12501C17.2274 1.99679 16.8616 1.93143 16.493 1.93201L4.099 1.93301ZM17.574 2.12601C17.5667 2.12355 17.5594 2.12122 17.552 2.11901C15.991 3.57601 14.84 4.85601 13.713 6.10901C12.998 6.90501 12.293 7.68901 11.5 8.49901L10.027 6.74601C9.76567 6.44437 9.44696 6.19772 9.08942 6.02039C8.73187 5.84307 8.34264 5.73862 7.94435 5.71313C7.54607 5.68763 7.14669 5.74159 6.76946 5.87187C6.39222 6.00216 6.04466 6.20616 5.747 6.47201C5.14271 7.01272 4.77543 7.76948 4.72454 8.57876C4.67364 9.38804 4.94321 10.1849 5.475 10.797L9.575 15.492C9.859 15.8191 10.21 16.0813 10.6043 16.2607C10.9986 16.4401 11.4268 16.5327 11.86 16.532C12.2932 16.5302 12.7209 16.4352 13.1141 16.2535C13.5073 16.0719 13.8569 15.8077 14.139 15.479L19.591 9.21401V5.18601C19.591 4.55601 19.459 4.04701 19.263 3.64001C18.9106 2.94014 18.3081 2.40008 17.574 2.12601Z" fill="#BE41C7"></path>
      <path d="M17.552 2.12001L17.621 1.88001L17.485 1.84001L17.381 1.93701L17.551 2.11901L17.552 2.12001ZM11.5 8.50001L11.309 8.66001L11.486 8.87201L11.679 8.67501L11.5 8.50001ZM10.027 6.74601L10.218 6.58601L10.215 6.58201L10.027 6.74601ZM5.747 6.47201L5.58 6.28501L5.746 6.47201H5.747ZM19.591 9.21401L19.78 9.37801L19.841 9.30801V9.21401H19.591ZM1.25 5.03101C1.25027 4.27558 1.55054 3.55118 2.08481 3.01711C2.61907 2.48303 3.34357 2.18301 4.099 2.18301V1.68301C2.249 1.68301 0.75 3.18201 0.75 5.03001L1.25 5.03101ZM1.25 17.426V5.03101L0.75 5.03001V17.425H1.25V17.426ZM4.099 20.274C3.34357 20.274 2.61907 19.974 2.08481 19.4399C1.55054 18.9058 1.25027 18.1814 1.25 17.426H0.75C0.75 19.275 2.25 20.774 4.099 20.774V20.274ZM16.493 20.274H4.099V20.774H16.493V20.274ZM19.342 17.426C19.342 17.8001 19.2683 18.1705 19.1251 18.5161C18.9819 18.8617 18.7721 19.1757 18.5075 19.4402C18.2429 19.7047 17.9288 19.9144 17.5832 20.0575C17.2375 20.2006 16.8671 20.2741 16.493 20.274V20.774C18.343 20.774 19.842 19.275 19.842 17.426H19.342ZM19.342 5.03101V17.426H19.842V5.03001L19.342 5.03101ZM19.04 3.75301C19.233 4.13701 19.342 4.57101 19.342 5.03101L19.842 5.03001C19.842 4.49001 19.714 3.98101 19.486 3.52901L19.04 3.75301ZM17.496 2.36301C18.1702 2.60821 18.723 3.10543 19.038 3.75001L19.488 3.53201C19.1135 2.76565 18.4542 2.17604 17.651 1.88901L17.496 2.36401V2.36301ZM16.493 2.18301C16.843 2.18301 17.177 2.24601 17.486 2.36101L17.661 1.89201C17.2873 1.75289 16.8917 1.68177 16.493 1.68201V2.18201V2.18301ZM4.099 2.18301H16.493V1.68201L4.099 1.68301V2.18301ZM17.552 2.12001L17.482 2.35901L17.484 2.36001L17.496 2.36401L17.651 1.88901C17.6444 1.88662 17.6377 1.88428 17.631 1.88201L17.625 1.88001H17.621L17.552 2.12001ZM13.899 6.27701C15.026 5.02401 16.17 3.75001 17.722 2.30201L17.381 1.93701C15.811 3.40101 14.654 4.68901 13.527 5.94201L13.899 6.27701ZM11.679 8.67501C12.476 7.85901 13.185 7.07101 13.899 6.27701L13.527 5.94201C12.8092 6.75212 12.0741 7.54664 11.322 8.32501L11.679 8.67501ZM9.836 6.90701L11.309 8.66101L11.692 8.33901L10.218 6.58601L9.836 6.90701ZM5.913 6.66001C6.186 6.41621 6.50476 6.22914 6.85074 6.1097C7.19672 5.99026 7.563 5.94082 7.92826 5.96427C8.29352 5.98772 8.65047 6.08359 8.97833 6.2463C9.3062 6.409 9.59842 6.6353 9.838 6.91201L10.215 6.58301C9.93198 6.25637 9.58685 5.98927 9.19966 5.79724C8.81247 5.60521 8.39096 5.49209 7.95966 5.46445C7.52835 5.43682 7.09586 5.49522 6.68733 5.63626C6.2788 5.7773 5.90239 5.99716 5.58 6.28501L5.913 6.66001ZM5.663 10.634C5.17451 10.0715 4.92692 9.33934 4.97369 8.59578C5.02047 7.85222 5.35786 7.1569 5.913 6.66001L5.58 6.28501C4.92626 6.86956 4.52891 7.68897 4.47389 8.56422C4.41888 9.43946 4.71061 10.3012 5.286 10.963L5.663 10.634ZM9.763 15.328L5.663 10.634L5.286 10.963L9.386 15.657L9.764 15.328H9.763ZM11.859 16.282C11.4619 16.2826 11.0693 16.1978 10.7078 16.0334C10.3464 15.869 10.0245 15.6287 9.764 15.329L9.387 15.657C9.6946 16.011 10.0747 16.2946 10.5016 16.4887C10.9285 16.6828 11.3921 16.7828 11.861 16.782L11.859 16.282ZM13.949 15.317C13.6902 15.6183 13.3696 15.8604 13.009 16.0269C12.6484 16.1934 12.2562 16.2804 11.859 16.282L11.861 16.782C12.3299 16.78 12.7929 16.6771 13.2185 16.4804C13.6442 16.2837 14.0226 15.9978 14.328 15.642L13.949 15.317ZM19.403 9.05101L13.95 15.316L14.327 15.644L19.78 9.37801L19.403 9.05101ZM19.341 5.18701V9.21501H19.841V5.18601L19.341 5.18701ZM19.038 3.75001C19.218 4.12201 19.341 4.59301 19.341 5.18701L19.841 5.18601C19.841 4.52001 19.701 3.97501 19.488 3.53201L19.038 3.75001ZM17.486 2.36101C18.161 2.61303 18.716 3.10951 19.04 3.75301L19.486 3.52901C19.1056 2.77296 18.4538 2.18934 17.661 1.89301L17.486 2.36101Z" fill="white"></path>
      <path fill-rule="evenodd" clip-rule="evenodd" d="M22.348 1.45603C23.139 2.12803 23.222 3.29903 22.533 4.07203L12.896 14.363C12.536 14.767 12.016 14.999 11.468 15C11.1985 15.0014 10.9318 14.9461 10.6851 14.8378C10.4384 14.7294 10.2172 14.5704 10.036 14.371L6.32997 10.117C6.16533 9.93596 6.03884 9.72359 5.95803 9.49258C5.87722 9.26158 5.84374 9.01667 5.85961 8.77245C5.87547 8.52823 5.94035 8.28971 6.05037 8.0711C6.16038 7.8525 6.31329 7.65828 6.49997 7.50003C6.88143 7.17442 7.37446 7.00972 7.87503 7.04069C8.3756 7.07166 8.84456 7.29588 9.18297 7.66603L11.455 10.332L19.666 1.63703C20.0023 1.26529 20.4698 1.03865 20.9699 1.00488C21.47 0.971118 21.9648 1.13287 22.348 1.45603Z" fill="#5E16BA" stroke="white" stroke-width="0.5"></path>
    </g>
    <defs>
      <clipPath id="clip0_151_8">
        <rect width="24" height="21" fill="white"></rect>
      </clipPath>
    </defs>
  </symbol>
  <symbol fill="none" xmlns="http://www.w3.org/2000/svg" viewBox="0 0 17 27" id="Values__risk">
    <g clip-path="url(#clip0_151_12)">
      <path d="M15.817 9.138C15.817 13.875 12.439 14.611 12.439 19.026C12.439 21.306 10.329 21.497 8.72402 21.497C7.33702 21.497 4.27402 20.924 4.27402 19.024C4.27402 14.612 0.955017 13.876 0.955017 9.138C0.955017 4.701 4.52502 1.104 8.44202 1.104C12.36 1.104 15.817 4.701 15.817 9.138Z" fill="#BE41C7" stroke="white" stroke-width="0.5"></path>
      <path d="M11.202 24.912C11.202 25.521 9.69302 26.751 8.38702 26.751C7.08102 26.751 5.57202 25.521 5.57202 24.911C5.57202 24.302 7.08102 24.544 8.38702 24.544C9.69302 24.544 11.202 24.302 11.202 24.912Z" fill="#BE41C7" stroke="white" stroke-width="0.5"></path>
      <path d="M11.564 8.57294C11.5026 8.50534 11.4281 8.45091 11.345 8.41294C11.2638 8.37619 11.1757 8.35718 11.0865 8.35718C10.9974 8.35718 10.9092 8.37619 10.828 8.41294C10.7446 8.45077 10.6697 8.50521 10.608 8.57294L8.38401 10.9959L6.16001 8.57294C6.0983 8.50523 6.02345 8.4508 5.94002 8.41294C5.85891 8.3764 5.77097 8.3575 5.68202 8.3575C5.59306 8.3575 5.50512 8.3764 5.42401 8.41294C5.34058 8.4508 5.26573 8.50523 5.20402 8.57294C5.14064 8.64264 5.09109 8.72374 5.05802 8.81194C5.0078 8.94627 4.99495 9.0917 5.02084 9.23276C5.04672 9.37381 5.11038 9.5052 5.20502 9.61294L7.70902 12.3409V20.1289C7.70789 20.3209 7.77851 20.5064 7.90702 20.6489C7.96716 20.7161 8.04064 20.77 8.12276 20.8072C8.20489 20.8444 8.29386 20.864 8.38401 20.8649C8.56401 20.8649 8.73502 20.7879 8.86202 20.6499C8.99053 20.5074 9.06114 20.3219 9.06002 20.1299V12.3399L11.564 9.61294C11.6277 9.54365 11.6775 9.46288 11.711 9.37494C11.7798 9.19358 11.7798 8.99331 11.711 8.81194C11.6776 8.72367 11.6277 8.64255 11.564 8.57294Z" fill="white"></path>
      <path d="M13 23C13 23.265 12.86 23.52 12.61 23.707C12.36 23.895 12.02 24 11.667 24H6.333C5.98 24 5.641 23.895 5.391 23.707C5.14 23.52 5 23.265 5 23V20H13V23Z" fill="#09010E"></path>
      <path d="M4.33002 24.543C4.24475 24.5422 4.16046 24.5246 4.08202 24.4912C4.00359 24.4577 3.93256 24.409 3.87302 24.348C3.74734 24.217 3.67112 24.0464 3.65744 23.8654C3.64376 23.6844 3.69346 23.5043 3.79802 23.356C3.89736 23.2133 4.04839 23.1151 4.21902 23.082L12.326 21.611C12.4141 21.5939 12.5048 21.5963 12.5918 21.6179C12.6789 21.6395 12.7601 21.6798 12.83 21.736C12.9032 21.7935 12.9643 21.8649 13.01 21.946C13.0803 22.0717 13.1153 22.2142 13.111 22.3583C13.1068 22.5023 13.0636 22.6425 12.986 22.764C12.9356 22.8413 12.8703 22.9079 12.794 22.96C12.7197 23.0106 12.6355 23.045 12.547 23.061L4.44102 24.533C4.4041 24.5399 4.36759 24.5433 4.33002 24.543ZM4.33002 21.6C4.24475 21.5992 4.16046 21.5816 4.08202 21.5482C4.00359 21.5147 3.93256 21.466 3.87302 21.405C3.74734 21.274 3.67112 21.1034 3.65744 20.9224C3.64376 20.7414 3.69346 20.5613 3.79802 20.413C3.89736 20.2703 4.04839 20.172 4.21902 20.139L12.326 18.668C12.4141 18.6511 12.5049 18.6537 12.5919 18.6754C12.6789 18.6972 12.7602 18.7376 12.83 18.794C12.9032 18.8515 12.9643 18.9229 13.01 19.004C13.0803 19.1297 13.1153 19.2722 13.111 19.4163C13.1068 19.5603 13.0636 19.7005 12.986 19.822C12.9355 19.899 12.8702 19.9652 12.794 20.017C12.7198 20.0679 12.6356 20.1027 12.547 20.119L4.44102 21.59C4.40411 21.597 4.36759 21.6003 4.33002 21.6Z" fill="#BE41C7" stroke="white" stroke-width="0.5"></path>
    </g>
    <defs>
      <clipPath id="clip0_151_12">
        <rect width="17" height="27" fill="white"></rect>
      </clipPath>
    </defs>
  </symbol>
  <symbol fill="none" xmlns="http://www.w3.org/2000/svg" viewBox="0 0 27 28" id="Values__sincere">
    <path d="M15.785 14.16C15.576 15.08 16.161 16.041 17.123 16.25C18.084 16.46 19.045 15.874 19.254 14.955L21.804 4.00402C21.9034 3.54961 21.8185 3.07432 21.5678 2.68248C21.3171 2.29064 20.9212 2.01426 20.467 1.91402C19.505 1.70402 18.544 2.29002 18.335 3.20902L15.785 14.161V14.16Z" fill="#BE41C7" stroke="white" stroke-width="0.5"></path>
    <path d="M19.088 15.2461C19.088 15.2461 15.45 11.6521 9.01399 13.4501C9.01399 13.4501 5.21099 14.1191 5.41999 16.0421C5.41999 16.0421 5.29399 20.8061 6.92399 23.6491C8.93899 27.0981 16.209 27.6861 19.83 23.6491C20.641 22.7441 20.564 21.9311 21 20.5011C21 19.0011 21 15.5001 19.088 15.2461Z" fill="#BE41C7" stroke="white" stroke-width="0.5"></path>
    <path d="M12.607 14.787C12.775 15.748 13.736 16.333 14.697 16.167C15.659 15.999 16.327 15.079 16.16 14.118L14.07 3.08301C13.903 2.12201 12.942 1.53701 11.98 1.70401C11.02 1.87101 10.35 2.79101 10.56 3.75201L12.607 14.787Z" fill="#BE41C7"></path>
    <path d="M12.607 14.787C12.775 15.748 13.736 16.333 14.697 16.167C15.659 15.999 16.327 15.079 16.16 14.118L14.07 3.08301C13.903 2.12201 12.942 1.53701 11.98 1.70401C11.02 1.87101 10.35 2.79101 10.56 3.75201L12.607 14.787Z" stroke="white" stroke-width="0.5"></path>
    <path d="M5.21198 14.2441C5.08598 13.2831 5.79698 12.4051 6.79998 12.2801H6.84198C7.80298 12.1961 8.72198 12.8651 8.80698 13.8681L9.09898 16.5851C9.22398 17.5461 8.51398 18.4241 7.51098 18.5491H7.46898C6.46598 18.6331 5.58798 17.9641 5.50398 16.9611L5.21198 14.2441Z" fill="#BE41C7"></path>
    <path d="M5.21198 14.2441C5.08598 13.2831 5.79698 12.4051 6.79998 12.2801H6.84198C7.80298 12.1961 8.72198 12.8651 8.80698 13.8681L9.09898 16.5851C9.22398 17.5461 8.51398 18.4241 7.51098 18.5491H7.46898C6.46598 18.6331 5.58798 17.9641 5.50398 16.9611L5.21198 14.2441Z" stroke="white" stroke-width="0.5"></path>
    <path d="M8.59398 12.2801C8.46898 11.3181 9.17898 10.4401 10.182 10.3151H10.224C11.227 10.2321 12.105 10.9001 12.189 11.9031L12.481 14.6201C12.607 15.5821 11.896 16.4601 10.893 16.5851H10.851C9.84798 16.6691 8.97098 16.0001 8.88698 14.9961L8.59398 12.2801Z" fill="#BE41C7"></path>
    <path d="M8.59398 12.2801C8.46898 11.3181 9.17898 10.4401 10.182 10.3151H10.224C11.227 10.2321 12.105 10.9001 12.189 11.9031L12.481 14.6201C12.607 15.5821 11.896 16.4601 10.893 16.5851H10.851C9.84798 16.6691 8.97098 16.0001 8.88698 14.9961L8.59398 12.2801Z" stroke="white" stroke-width="0.5"></path>
    <path d="M6.915 17.965C7.918 17.839 8.587 17.003 8.503 16L8.211 13.283C8.169 13.033 8.044 12.74 7.918 12.489C8.545 12.782 8.754 13.283 8.838 13.869L9.13 16.585C9.15887 16.8135 9.14145 17.0454 9.07876 17.267C9.01608 17.4885 8.90942 17.6952 8.76514 17.8747C8.62087 18.0541 8.44193 18.2027 8.239 18.3115C8.03607 18.4203 7.81331 18.4872 7.584 18.508C7.24868 18.5432 6.91022 18.4835 6.60719 18.3357C6.30415 18.1879 6.04872 17.9579 5.87 17.672C6.12 17.882 6.497 18.007 6.915 17.965ZM10.253 16C11.257 15.875 11.967 15.039 11.842 14.077L11.549 11.361C11.496 11.0818 11.3973 10.8132 11.257 10.566C11.842 10.901 12.092 11.402 12.176 11.987L12.469 14.704C12.594 15.666 11.883 16.502 10.88 16.627H10.838C10.5028 16.662 10.1646 16.6022 9.86175 16.4544C9.55892 16.3066 9.30365 16.0768 9.125 15.791C9.459 15.958 9.835 16.04 10.253 16ZM17.492 17.88C15.486 16.92 10.93 18.591 11.85 22.771C11.85 18.424 15.779 17.671 17.492 17.881V17.88Z" fill="white"></path>
    <path d="M16.735 13.576C15.272 12.698 15.021 14.077 12.555 14.161C11.468 14.203 11.008 16.418 12.639 17.212C14.896 18.341 15.063 16.752 15.648 17.379C16.233 18.048 16.776 18.173 17.278 18.926C17.654 19.469 20.455 18.633 20.748 17.505C21.291 15.289 18.992 14.955 16.735 13.575V13.576Z" fill="white"></path>
    <path d="M16.913 13.951C15.408 13.074 15.116 14.453 12.566 14.537C11.437 14.578 10.936 16.877 12.649 17.713C14.99 18.883 15.199 17.212 15.743 17.881C16.369 18.549 16.913 18.716 17.456 19.511C17.833 20.096 16.829 22.269 16.829 22.269C16.829 22.269 19.713 24.318 20.299 23.147C21.385 20.974 21.093 19.302 21.051 18.047C20.967 15.08 19.295 15.373 16.913 13.951Z" fill="#BE41C7"></path>
    <path d="M16.913 13.951C15.408 13.074 15.116 14.453 12.566 14.537C11.437 14.578 10.936 16.877 12.649 17.713C14.99 18.883 15.199 17.212 15.743 17.881C16.369 18.549 16.913 18.716 17.456 19.511C17.833 20.096 16.829 22.269 16.829 22.269C16.829 22.269 19.713 24.318 20.299 23.147C21.385 20.974 21.093 19.302 21.051 18.047C20.967 15.08 19.295 15.373 16.913 13.951Z" stroke="white" stroke-width="0.5"></path>
  </symbol>
  <symbol fill="none" xmlns="http://www.w3.org/2000/svg" viewBox="0 0 31 20" id="Values__together">
    <g clip-path="url(#clip0_151_31)">
      <path d="M20.616 0.689941H16.7C16.3309 0.691783 15.9773 0.838266 15.715 1.09794L11.233 5.46594C11.228 5.47094 11.224 5.48094 11.219 5.48594C10.462 6.24294 10.476 7.45194 11.124 8.20394C11.703 8.87894 12.92 9.05794 13.682 8.33494C13.686 8.32994 13.695 8.32994 13.7 8.32494L17.343 4.77194C17.412 4.70401 17.4944 4.6511 17.5849 4.61654C17.6753 4.58198 17.772 4.56652 17.8687 4.57112C17.9655 4.57572 18.0602 4.60029 18.147 4.64329C18.2338 4.68628 18.3107 4.74677 18.373 4.82094C18.5044 4.97614 18.5727 5.17503 18.5644 5.37821C18.556 5.58139 18.4717 5.77403 18.328 5.91794L17.138 7.07794L23.778 12.8149C23.909 12.9309 24.028 13.0569 24.138 13.1879V3.79694L21.648 1.14694C21.517 1.00404 21.3579 0.889758 21.1807 0.811285C21.0034 0.732812 20.8119 0.69184 20.618 0.690941L20.616 0.689941ZM25.6 3.80794V14.6749C25.6 15.5339 26.252 16.2279 27.06 16.2279H29.978V3.80694H25.6V3.80794ZM27.789 14.6749C27.387 14.6749 27.059 14.3249 27.059 13.8979C27.059 13.4709 27.387 13.1219 27.789 13.1219C28.19 13.1219 28.519 13.4719 28.519 13.8979C28.519 14.3249 28.19 14.6749 27.789 14.6749ZM0.795006 16.2219H3.71301C4.52001 16.2219 5.17301 15.5279 5.17301 14.6689V3.80694H0.794006L0.795006 16.2219ZM2.98301 13.1209C3.38501 13.1209 3.71301 13.4709 3.71301 13.8969C3.71301 14.3239 3.38501 14.6739 2.98301 14.6739C2.58301 14.6739 2.25301 14.3239 2.25301 13.8969C2.25301 13.4649 2.58301 13.1209 2.98301 13.1209ZM22.86 14.0229L16.052 8.14094L14.684 9.47594C13.33 10.7909 11.254 10.6649 10.047 9.26194C8.82001 7.83494 8.91601 5.62694 10.247 4.32594L13.977 0.689941H10.156C9.76801 0.689941 9.39901 0.854941 9.12601 1.14594L6.63001 3.79694V14.6639H7.46501L11.591 18.6389C12.841 19.7209 14.678 19.5179 15.695 18.1879L15.705 18.1779L16.521 18.9299C17.246 19.5609 18.317 19.4399 18.905 18.6679L20.337 16.7949L20.583 17.0079C20.729 17.136 20.9002 17.2323 21.0855 17.2906C21.2708 17.3489 21.4662 17.3679 21.6593 17.3464C21.8524 17.325 22.0388 17.2635 22.2068 17.166C22.3748 17.0685 22.5207 16.937 22.635 16.7799L23.068 16.2119C23.579 15.5419 23.483 14.5669 22.858 14.0229H22.86Z" fill="#BE41C7" stroke="white" stroke-width="0.5"></path>
    </g>
    <defs>
      <clipPath id="clip0_151_31">
        <rect width="31" height="20" fill="white"></rect>
      </clipPath>
    </defs>
  </symbol>
</svg>