<svg width="31" height="20" fill="none" xmlns="http://www.w3.org/2000/svg"><path d="M20.616.69H16.7a1.41 1.41 0 0 0-.985.408l-4.482 4.368c-.005.005-.009.015-.014.02-.757.757-.743 1.966-.095 2.718.579.675 1.796.854 2.558.131.004-.005.013-.005.018-.01l3.643-3.553a.702.702 0 0 1 1.03.049.811.811 0 0 1-.045 1.097l-1.19 1.16 6.64 5.737c.131.116.25.242.36.373V3.797l-2.49-2.65a1.406 1.406 0 0 0-1.03-.456ZM25.6 3.808v10.867c0 .859.652 1.553 1.46 1.553h2.918V3.807H25.6Zm2.189 10.867c-.402 0-.73-.35-.73-.777 0-.427.328-.776.73-.776.401 0 .73.35.73.776 0 .427-.329.777-.73.777ZM.795 16.222h2.918c.807 0 1.46-.694 1.46-1.553V3.807H.794v12.415Zm2.188-3.101c.402 0 .73.35.73.776 0 .427-.328.777-.73.777-.4 0-.73-.35-.73-.777 0-.432.33-.776.73-.776Zm19.877.902-6.808-5.882-1.368 1.335c-1.354 1.315-3.43 1.189-4.637-.214-1.227-1.427-1.131-3.635.2-4.936L13.977.69h-3.821c-.388 0-.757.165-1.03.456L6.63 3.797v10.867h.835l4.126 3.975c1.25 1.082 3.087.879 4.104-.451l.01-.01.816.752c.725.631 1.796.51 2.384-.262l1.432-1.873.246.213a1.398 1.398 0 0 0 2.052-.228l.433-.568c.511-.67.415-1.645-.21-2.189Z" fill="url(#a)" stroke="#fff" stroke-width=".5"/><defs><linearGradient id="a" x1="3.5" y1="-1" x2="36.5" y2="15.5" gradientUnits="userSpaceOnUse"><stop stop-color="#C54A92"/><stop offset="1" stop-color="#2E62EB"/></linearGradient></defs></svg>