<svg width="18" height="19" fill="none" xmlns="http://www.w3.org/2000/svg"><path d="M15.68 10.084c-.361-1.608-2.1-2.455-3.893-2.05-.376.084-.738-.144-.778-.49-.19-1.655-1.67-2.836-3.473-2.59-2.067.282-3.618 2.15-3.406 4.001l.734 6.37c.048.412.449.664.894.564l6.905-1.558c2.008-.453 3.428-2.403 3.017-4.247Z" fill="url(#a)"/><path d="M14.26 2.363c-.298-.546-1.023-.731-1.64-.468-.132.057-.283.002-.335-.122a1.248 1.248 0 0 0-1.54-.688c-.73.238-1.107 1.005-.839 1.648l.925 2.213c.06.142.232.205.386.14l2.373-1.014c.69-.295 1.01-1.081.67-1.709Z" fill="url(#b)"/><defs><linearGradient id="a" x1="7.792" y1="-.838" x2="18.714" y2="11.394" gradientUnits="userSpaceOnUse"><stop stop-color="#B936F5"/><stop offset="1" stop-color="#C64C85"/><stop offset="1" stop-color="#F1005B"/></linearGradient><linearGradient id="b" x1="10.242" y1="-.988" x2="15.432" y2="2.733" gradientUnits="userSpaceOnUse"><stop stop-color="#B936F5"/><stop offset="1" stop-color="#C64C85"/><stop offset="1" stop-color="#F1005B"/></linearGradient></defs></svg>