<svg width="17" height="27" fill="none" xmlns="http://www.w3.org/2000/svg"><path d="M15.817 9.138c0 4.737-3.378 5.473-3.378 9.888 0 2.28-2.11 2.471-3.715 2.471-1.387 0-4.45-.573-4.45-2.473 0-4.412-3.319-5.148-3.319-9.886 0-4.437 3.57-8.034 7.487-8.034 3.918 0 7.375 3.597 7.375 8.034Z" fill="url(#a)" stroke="#fff" stroke-width=".5"/><path d="M11.202 24.912c0 .609-1.509 1.839-2.815 1.839s-2.815-1.23-2.815-1.84c0-.609 1.509-.367 2.815-.367s2.815-.242 2.815.368Z" fill="url(#b)" stroke="#fff" stroke-width=".5"/><path d="M11.564 8.573a.675.675 0 0 0-.219-.16.627.627 0 0 0-.517 0 .674.674 0 0 0-.22.16l-2.224 2.423L6.16 8.573a.675.675 0 0 0-.22-.16.628.628 0 0 0-.516 0 .675.675 0 0 0-.22.16.743.743 0 0 0-.146.239.793.793 0 0 0 .147.801l2.504 2.728v7.788a.77.77 0 0 0 .198.52.649.649 0 0 0 .477.216c.18 0 .351-.077.478-.215a.77.77 0 0 0 .198-.52v-7.79l2.504-2.727a.742.742 0 0 0 .147-.238.794.794 0 0 0 0-.563.743.743 0 0 0-.147-.239Z" fill="#fff"/><path d="M13 23c0 .265-.14.52-.39.707-.25.188-.59.293-.943.293H6.333c-.353 0-.692-.105-.942-.293C5.14 23.52 5 23.265 5 23v-3h8v3Z" fill="#09010E"/><path d="M4.33 24.543a.646.646 0 0 1-.457-.195.782.782 0 0 1-.075-.992.668.668 0 0 1 .421-.274l8.107-1.471a.617.617 0 0 1 .504.125.711.711 0 0 1 .18.21.797.797 0 0 1-.024.818.7.7 0 0 1-.192.196.642.642 0 0 1-.247.101l-8.106 1.472a.58.58 0 0 1-.112.01Zm0-2.943a.646.646 0 0 1-.457-.195.782.782 0 0 1-.075-.992.668.668 0 0 1 .421-.274l8.107-1.471a.618.618 0 0 1 .504.126.712.712 0 0 1 .18.21.797.797 0 0 1-.024.818.7.7 0 0 1-.192.195.642.642 0 0 1-.247.102L4.441 21.59a.572.572 0 0 1-.112.01Z" fill="url(#c)" stroke="#fff" stroke-width=".5"/><defs><linearGradient id="a" x1="2.333" y1="-.746" x2="22.26" y2="3.893" gradientUnits="userSpaceOnUse"><stop stop-color="#C54A92"/><stop offset="1" stop-color="#2E62EB"/></linearGradient><linearGradient id="b" x1="6.094" y1="24.292" x2="7.853" y2="27.956" gradientUnits="userSpaceOnUse"><stop stop-color="#C54A92"/><stop offset="1" stop-color="#2E62EB"/></linearGradient><linearGradient id="c" x1="4.533" y1="18.124" x2="10.175" y2="25.684" gradientUnits="userSpaceOnUse"><stop stop-color="#C54A92"/><stop offset="1" stop-color="#2E62EB"/></linearGradient></defs></svg>