<svg width="27" height="28" fill="none" xmlns="http://www.w3.org/2000/svg"><path d="M15.785 14.16c-.209.92.376 1.881 1.338 2.09.961.21 1.922-.376 2.131-1.295l2.55-10.951a1.756 1.756 0 0 0-1.337-2.09c-.962-.21-1.923.376-2.132 1.295l-2.55 10.952Z" fill="url(#a)" stroke="#fff" stroke-width=".5"/><path d="M19.088 15.246S15.45 11.652 9.014 13.45c0 0-3.803.669-3.594 2.592 0 0-.126 4.764 1.504 7.607 2.015 3.449 9.285 4.037 12.906 0 .811-.905.734-1.718 1.17-3.148 0-1.5 0-5-1.912-5.254Z" fill="url(#b)" stroke="#fff" stroke-width=".5"/><path d="M12.607 14.787c.168.961 1.129 1.546 2.09 1.38.962-.168 1.63-1.088 1.463-2.049L14.07 3.083c-.167-.961-1.128-1.546-2.09-1.379-.96.167-1.63 1.087-1.42 2.048l2.047 11.035Z" fill="url(#c)"/><path d="M12.607 14.787c.168.961 1.129 1.546 2.09 1.38.962-.168 1.63-1.088 1.463-2.049L14.07 3.083c-.167-.961-1.128-1.546-2.09-1.379-.96.167-1.63 1.087-1.42 2.048l2.047 11.035" stroke="#fff" stroke-width=".5"/><path d="M5.212 14.244c-.126-.961.585-1.839 1.588-1.964h.042c.961-.084 1.88.585 1.965 1.588l.292 2.717c.125.961-.585 1.839-1.588 1.964h-.042c-1.003.084-1.881-.585-1.965-1.588l-.292-2.717Z" fill="url(#d)"/><path d="M5.212 14.244c-.126-.961.585-1.839 1.588-1.964h.042c.961-.084 1.88.585 1.965 1.588l.292 2.717c.125.961-.585 1.839-1.588 1.964h-.042c-1.003.084-1.881-.585-1.965-1.588l-.292-2.717" stroke="#fff" stroke-width=".5"/><path d="M8.594 12.28c-.125-.962.585-1.84 1.588-1.965h.042c1.003-.083 1.881.585 1.965 1.588l.292 2.717c.126.962-.585 1.84-1.588 1.965h-.042c-1.003.084-1.88-.585-1.964-1.589l-.293-2.716Z" fill="url(#e)"/><path d="M8.594 12.28c-.125-.962.585-1.84 1.588-1.965h.042c1.003-.083 1.881.585 1.965 1.588l.292 2.717c.126.962-.585 1.84-1.588 1.965h-.042c-1.003.084-1.88-.585-1.964-1.589l-.293-2.716" stroke="#fff" stroke-width=".5"/><path d="M6.915 17.965c1.003-.126 1.672-.962 1.588-1.965l-.292-2.717c-.042-.25-.167-.543-.293-.794.627.293.836.794.92 1.38l.292 2.716a1.715 1.715 0 0 1-1.546 1.923 1.8 1.8 0 0 1-1.714-.836c.25.21.627.335 1.045.293ZM10.253 16c1.004-.125 1.714-.961 1.589-1.923l-.293-2.716a2.588 2.588 0 0 0-.292-.795c.585.335.835.836.919 1.421l.293 2.717c.125.962-.586 1.798-1.589 1.923h-.042a1.8 1.8 0 0 1-1.713-.836c.334.167.71.25 1.128.21ZM17.492 17.88c-2.006-.96-6.562.711-5.642 4.891 0-4.347 3.929-5.1 5.642-4.89Z" fill="#fff"/><path d="M16.735 13.576c-1.463-.878-1.714.501-4.18.585-1.087.042-1.547 2.257.084 3.051 2.257 1.129 2.424-.46 3.009.167.585.669 1.128.794 1.63 1.547.376.543 3.177-.293 3.47-1.421.543-2.216-1.756-2.55-4.013-3.93Z" fill="#fff"/><path d="M16.913 13.951c-1.505-.877-1.797.502-4.347.586-1.129.041-1.63 2.34.083 3.176 2.341 1.17 2.55-.501 3.094.168.626.668 1.17.835 1.713 1.63.377.585-.627 2.758-.627 2.758s2.884 2.049 3.47.878c1.086-2.173.794-3.845.752-5.1-.084-2.967-1.756-2.674-4.138-4.096Z" fill="url(#f)"/><path d="M16.913 13.951c-1.505-.877-1.797.502-4.347.586-1.129.041-1.63 2.34.083 3.176 2.341 1.17 2.55-.501 3.094.168.626.668 1.17.835 1.713 1.63.377.585-.627 2.758-.627 2.758s2.884 2.049 3.47.878c1.086-2.173.794-3.845.752-5.1-.084-2.967-1.756-2.674-4.138-4.096" stroke="#fff" stroke-width=".5"/><defs><linearGradient id="a" x1="16.309" y1=".564" x2="24.781" y2="1.709" gradientUnits="userSpaceOnUse"><stop stop-color="#C54A92"/><stop offset="1" stop-color="#2E62EB"/></linearGradient><linearGradient id="b" x1="6.899" y1="11.695" x2="26.827" y2="19.1" gradientUnits="userSpaceOnUse"><stop stop-color="#C54A92"/><stop offset="1" stop-color="#2E62EB"/></linearGradient><linearGradient id="c" x1="11.046" y1=".359" x2="18.931" y2="1.342" gradientUnits="userSpaceOnUse"><stop stop-color="#C54A92"/><stop offset="1" stop-color="#2E62EB"/></linearGradient><linearGradient id="d" x1="5.56" y1="11.703" x2="10.885" y2="12.763" gradientUnits="userSpaceOnUse"><stop stop-color="#C54A92"/><stop offset="1" stop-color="#2E62EB"/></linearGradient><linearGradient id="e" x1="8.943" y1="9.738" x2="14.267" y2="10.798" gradientUnits="userSpaceOnUse"><stop stop-color="#C54A92"/><stop offset="1" stop-color="#2E62EB"/></linearGradient><linearGradient id="f" x1="12.424" y1="12.768" x2="24.775" y2="16.606" gradientUnits="userSpaceOnUse"><stop stop-color="#C54A92"/><stop offset="1" stop-color="#2E62EB"/></linearGradient></defs></svg>