<svg width="24" height="21" fill="none" xmlns="http://www.w3.org/2000/svg"><path fill-rule="evenodd" clip-rule="evenodd" d="M4.099 1.933A3.099 3.099 0 0 0 1 5.03v12.395a3.099 3.099 0 0 0 3.099 3.098h12.394a3.099 3.099 0 0 0 3.099-3.098V5.03c0-.5-.119-.972-.329-1.39a3.02 3.02 0 0 0-1.69-1.515 3.091 3.091 0 0 0-1.08-.193H4.099Zm13.475.193a.676.676 0 0 0-.022-.007c-1.561 1.457-2.712 2.737-3.839 3.99-.715.796-1.42 1.58-2.213 2.39l-1.473-1.753a3.01 3.01 0 0 0-4.28-.274 3.087 3.087 0 0 0-.272 4.325l4.1 4.695a3.02 3.02 0 0 0 2.285 1.04 3.02 3.02 0 0 0 2.279-1.053l5.452-6.265V5.186c0-.63-.132-1.138-.328-1.545a3.11 3.11 0 0 0-1.69-1.515Z" fill="url(#a)"/><path d="m17.552 2.12.069-.24-.136-.04-.104.097.17.182Zm-3.839 3.99.186.167-.186-.167ZM11.5 8.5l-.191.16.177.212.193-.197L11.5 8.5Zm-1.473-1.754.191-.16-.003-.004-.188.164Zm-4.28-.274-.167-.187.166.187Zm-.272 4.325-.189.165.189-.165Zm4.1 4.695.189-.164-.189.164Zm2.285 1.04v.25-.25Zm2.279-1.053-.189-.164.189.164Zm5.452-6.265.189.164.061-.07v-.094h-.25ZM1.25 5.031a2.849 2.849 0 0 1 2.849-2.848v-.5C2.249 1.683.75 3.182.75 5.03h.5Zm0 12.395V5.03h-.5v12.395h.5Zm2.849 2.848a2.849 2.849 0 0 1-2.849-2.848h-.5c0 1.849 1.5 3.348 3.349 3.348v-.5Zm12.394 0H4.099v.5h12.394v-.5Zm2.849-2.848a2.848 2.848 0 0 1-2.849 2.848v.5c1.85 0 3.349-1.499 3.349-3.348h-.5Zm0-12.395v12.395h.5V5.03h-.5Zm-.302-1.278c.193.384.302.818.302 1.278h.5c0-.54-.128-1.05-.356-1.502l-.446.224Zm-1.544-1.39a2.77 2.77 0 0 1 1.542 1.387l.45-.218a3.269 3.269 0 0 0-1.837-1.643l-.155.475Zm-1.003-.18c.35 0 .684.063.993.178l.175-.469a3.342 3.342 0 0 0-1.168-.21v.5Zm-12.394 0h12.394v-.5H4.099v.5Zm13.453-.064-.07.24.002.001.012.004.155-.475a1.196 1.196 0 0 0-.02-.007l-.006-.002h-.004l-.07.24Zm-3.653 4.158c1.127-1.253 2.271-2.527 3.823-3.975l-.34-.365c-1.57 1.464-2.728 2.752-3.855 4.005l.372.335Zm-2.22 2.398c.797-.816 1.506-1.604 2.22-2.398l-.372-.335a75.176 75.176 0 0 1-2.205 2.383l.357.35ZM9.836 6.907l1.473 1.754.383-.322-1.474-1.753-.382.321ZM5.913 6.66a2.76 2.76 0 0 1 3.925.252l.377-.329a3.26 3.26 0 0 0-4.635-.297l.333.374Zm-.25 3.974a2.837 2.837 0 0 1 .25-3.974l-.333-.374a3.337 3.337 0 0 0-.294 4.677l.377-.329Zm4.1 4.694-4.1-4.694-.377.329 4.1 4.694.378-.329Zm2.096.954a2.77 2.77 0 0 1-2.095-.953l-.377.328a3.27 3.27 0 0 0 2.474 1.125l-.002-.5Zm2.09-.965a2.77 2.77 0 0 1-2.09.965l.002.5a3.27 3.27 0 0 0 2.467-1.14l-.379-.325Zm5.454-6.266-5.453 6.265.377.328 5.453-6.265-.377-.328Zm-.062-3.864v4.028h.5V5.186h-.5Zm-.303-1.436c.18.372.303.842.303 1.436h.5c0-.666-.14-1.211-.353-1.654l-.45.218Zm-1.552-1.39a2.86 2.86 0 0 1 1.554 1.393l.446-.224a3.36 3.36 0 0 0-1.825-1.637l-.175.469Z" fill="#fff"/><path fill-rule="evenodd" clip-rule="evenodd" d="M22.348 1.456c.791.672.874 1.843.185 2.616l-9.637 10.291c-.36.404-.88.636-1.428.637a1.922 1.922 0 0 1-1.432-.629L6.33 10.117A1.823 1.823 0 0 1 6.5 7.5a1.934 1.934 0 0 1 2.683.166l2.272 2.666 8.211-8.695a1.934 1.934 0 0 1 2.681-.181Z" fill="url(#b)" stroke="#fff" stroke-width=".5"/><defs><linearGradient id="a" x1="2.723" y1=".247" x2="26.569" y2="7.864" gradientUnits="userSpaceOnUse"><stop stop-color="#C54A92"/><stop offset="1" stop-color="#2E62EB"/></linearGradient><linearGradient id="b" x1="7.372" y1="1.913" x2="25.442" y2="9.014" gradientUnits="userSpaceOnUse"><stop stop-color="#C54A92"/><stop offset="1" stop-color="#2E62EB"/></linearGradient></defs></svg>